<mxfile host="app.diagrams.net" modified="2024-01-22T03:47:23.633Z" agent="Mozilla/5.0 (Windows NT 10.0; Win64; x64) AppleWebKit/537.36 (KHTML, like Gecko) Chrome/120.0.0.0 Safari/537.36 Edg/120.0.0.0" etag="Q42FUt7tvDfGJcfUOmt7" version="22.1.21" type="device">
  <diagram name="Page-1" id="szqaRRRsMiF8Z_E52jkz">
    <mxGraphModel dx="1804" dy="1717" grid="1" gridSize="10" guides="1" tooltips="1" connect="1" arrows="1" fold="1" page="1" pageScale="1" pageWidth="850" pageHeight="1100" math="0" shadow="0">
      <root>
        <mxCell id="0" />
        <mxCell id="1" parent="0" />
        <mxCell id="GHPj2EdhDwdEqbTnXlTS-1" value="CI:&amp;nbsp;23082300205&lt;br style=&quot;font-size: 17px;&quot;&gt;Nombre: &quot;Edgar F.&quot;&lt;br style=&quot;font-size: 17px;&quot;&gt;Apellido: &quot;Codd&quot;&lt;br style=&quot;font-size: 17px;&quot;&gt;F. Nacimiento: 23/08/1923" style="ellipse;whiteSpace=wrap;html=1;aspect=fixed;fontSize=17;" vertex="1" parent="1">
          <mxGeometry x="100" y="180" width="230" height="230" as="geometry" />
        </mxCell>
        <mxCell id="GHPj2EdhDwdEqbTnXlTS-5" value="Persona" style="text;html=1;strokeColor=#b85450;fillColor=#f8cecc;align=center;verticalAlign=middle;whiteSpace=wrap;overflow=hidden;rotation=10;fontSize=18;" vertex="1" parent="1">
          <mxGeometry x="-0.95" y="197.24" width="80" height="30" as="geometry" />
        </mxCell>
        <mxCell id="GHPj2EdhDwdEqbTnXlTS-6" value="" style="curved=1;endArrow=none;html=1;rounded=0;entryX=1;entryY=0.5;entryDx=0;entryDy=0;exitX=0;exitY=0;exitDx=0;exitDy=0;endFill=0;" edge="1" parent="1" source="GHPj2EdhDwdEqbTnXlTS-1" target="GHPj2EdhDwdEqbTnXlTS-5">
          <mxGeometry width="50" height="50" relative="1" as="geometry">
            <mxPoint x="280" y="350" as="sourcePoint" />
            <mxPoint x="330" y="300" as="targetPoint" />
            <Array as="points">
              <mxPoint x="100" y="200" />
              <mxPoint x="100" y="220" />
            </Array>
          </mxGeometry>
        </mxCell>
        <mxCell id="GHPj2EdhDwdEqbTnXlTS-8" value="ID: 5321" style="rounded=0;whiteSpace=wrap;html=1;strokeColor=none;fontColor=#FF6666;fontSize=19;" vertex="1" parent="1">
          <mxGeometry x="175" y="200" width="80" height="20" as="geometry" />
        </mxCell>
        <mxCell id="GHPj2EdhDwdEqbTnXlTS-12" value="&lt;font color=&quot;#3399ff&quot;&gt;CI&lt;/font&gt;:&amp;nbsp;23082300205&lt;br style=&quot;font-size: 17px;&quot;&gt;&lt;font color=&quot;#3399ff&quot;&gt;Nombre&lt;/font&gt;: &quot;Edgar F.&quot;&lt;br style=&quot;font-size: 17px;&quot;&gt;&lt;font color=&quot;#3399ff&quot;&gt;Apellido&lt;/font&gt;: &quot;Codd&quot;&lt;br style=&quot;font-size: 17px;&quot;&gt;&lt;font color=&quot;#3399ff&quot;&gt;F. Nacimiento&lt;/font&gt;: 23/08/1923" style="ellipse;whiteSpace=wrap;html=1;aspect=fixed;fontSize=17;" vertex="1" parent="1">
          <mxGeometry x="320.95000000000005" y="-120" width="230" height="230" as="geometry" />
        </mxCell>
        <mxCell id="GHPj2EdhDwdEqbTnXlTS-13" value="Persona" style="text;html=1;strokeColor=#b85450;fillColor=#3399FF;align=center;verticalAlign=middle;whiteSpace=wrap;overflow=hidden;rotation=10;fontSize=18;fontColor=#CCE5FF;" vertex="1" parent="1">
          <mxGeometry x="220" y="-102.75999999999999" width="80" height="30" as="geometry" />
        </mxCell>
        <mxCell id="GHPj2EdhDwdEqbTnXlTS-14" value="" style="curved=1;endArrow=none;html=1;rounded=0;entryX=1;entryY=0.5;entryDx=0;entryDy=0;exitX=0;exitY=0;exitDx=0;exitDy=0;endFill=0;" edge="1" parent="1" source="GHPj2EdhDwdEqbTnXlTS-12" target="GHPj2EdhDwdEqbTnXlTS-13">
          <mxGeometry width="50" height="50" relative="1" as="geometry">
            <mxPoint x="500.95000000000005" y="50" as="sourcePoint" />
            <mxPoint x="550.95" as="targetPoint" />
            <Array as="points">
              <mxPoint x="320.95000000000005" y="-100" />
              <mxPoint x="320.95000000000005" y="-80" />
            </Array>
          </mxGeometry>
        </mxCell>
        <mxCell id="GHPj2EdhDwdEqbTnXlTS-15" value="ID: 5321" style="rounded=0;whiteSpace=wrap;html=1;strokeColor=none;fontColor=#FF6666;fontSize=19;" vertex="1" parent="1">
          <mxGeometry x="395.95000000000005" y="-100" width="80" height="20" as="geometry" />
        </mxCell>
        <mxCell id="GHPj2EdhDwdEqbTnXlTS-16" value="SER_DUEÃ‘O" style="endArrow=classic;html=1;rounded=0;exitX=1;exitY=0.5;exitDx=0;exitDy=0;endSize=13;fontSize=17;strokeColor=#3399FF;fontColor=#3399FF;" edge="1" parent="1" source="GHPj2EdhDwdEqbTnXlTS-1" target="GHPj2EdhDwdEqbTnXlTS-20">
          <mxGeometry width="50" height="50" relative="1" as="geometry">
            <mxPoint x="320" y="280" as="sourcePoint" />
            <mxPoint x="500" y="230" as="targetPoint" />
          </mxGeometry>
        </mxCell>
        <mxCell id="GHPj2EdhDwdEqbTnXlTS-18" value="TRABAJA_CON" style="endArrow=classic;html=1;rounded=0;exitX=1;exitY=0.5;exitDx=0;exitDy=0;endSize=13;fontSize=17;fontColor=#3399FF;" edge="1" parent="1">
          <mxGeometry width="50" height="50" relative="1" as="geometry">
            <mxPoint x="550.95" y="-5" as="sourcePoint" />
            <mxPoint x="720.95" y="-70" as="targetPoint" />
          </mxGeometry>
        </mxCell>
        <mxCell id="GHPj2EdhDwdEqbTnXlTS-19" value="&lt;font color=&quot;#3399ff&quot;&gt;desde&lt;/font&gt;: 1940" style="text;html=1;strokeColor=none;fillColor=none;align=center;verticalAlign=middle;whiteSpace=wrap;rounded=0;fontSize=17;" vertex="1" parent="1">
          <mxGeometry x="590.95" y="-20" width="110" height="30" as="geometry" />
        </mxCell>
        <mxCell id="GHPj2EdhDwdEqbTnXlTS-20" value="No. Cuenta: 8976&lt;br&gt;Balance: 270.98" style="ellipse;whiteSpace=wrap;html=1;aspect=fixed;fontSize=17;" vertex="1" parent="1">
          <mxGeometry x="490" y="240" width="160" height="160" as="geometry" />
        </mxCell>
        <mxCell id="GHPj2EdhDwdEqbTnXlTS-21" value="ID: 272" style="rounded=0;whiteSpace=wrap;html=1;strokeColor=none;fontColor=#FF6666;fontSize=19;" vertex="1" parent="1">
          <mxGeometry x="530" y="260" width="80" height="20" as="geometry" />
        </mxCell>
        <mxCell id="GHPj2EdhDwdEqbTnXlTS-22" value="Cuenta" style="text;html=1;strokeColor=#82b366;fillColor=#d5e8d4;align=center;verticalAlign=middle;whiteSpace=wrap;overflow=hidden;rotation=10;fontSize=18;" vertex="1" parent="1">
          <mxGeometry x="395.95" y="220" width="80" height="30" as="geometry" />
        </mxCell>
        <mxCell id="GHPj2EdhDwdEqbTnXlTS-23" value="" style="curved=1;endArrow=none;html=1;rounded=0;entryX=1;entryY=0.5;entryDx=0;entryDy=0;endFill=0;" edge="1" parent="1" target="GHPj2EdhDwdEqbTnXlTS-22" source="GHPj2EdhDwdEqbTnXlTS-20">
          <mxGeometry width="50" height="50" relative="1" as="geometry">
            <mxPoint x="490" y="216.76" as="sourcePoint" />
            <mxPoint x="686" y="302.76" as="targetPoint" />
            <Array as="points">
              <mxPoint x="510" y="240" />
              <mxPoint x="490" y="280" />
            </Array>
          </mxGeometry>
        </mxCell>
      </root>
    </mxGraphModel>
  </diagram>
</mxfile>
